<?xml version="1.0" encoding="UTF-8" standalone="no"?>
<!DOCTYPE svg PUBLIC "-//W3C//DTD SVG 1.1//EN" "http://www.w3.org/Graphics/SVG/1.1/DTD/svg11.dtd">
<svg width="100%" height="100%" viewBox="0 0 1026 867" version="1.1" xmlns="http://www.w3.org/2000/svg" xmlns:xlink="http://www.w3.org/1999/xlink" xml:space="preserve" xmlns:serif="http://www.serif.com/" style="fill-rule:evenodd;clip-rule:evenodd;stroke-linecap:round;stroke-linejoin:round;stroke-miterlimit:1.5;">
    <g transform="matrix(1,0,0,1,-430.188698,-3417.898017)">
        <g transform="matrix(0.835278,0,0,0.835278,21.766431,618.494132)">
            <g id="casa-radici" serif:id="casa radici" transform="matrix(1,0,0,1,1203.162791,1300.352237)">
                <g transform="matrix(1,0,0,1,-1821.111186,1533.055809)">
                    <path d="M1610.21,1042.641C1591.745,887.243 1734.313,887.271 1734.313,887.271L1998.58,883.549L1998.58,760.721L2084.53,756.999L1970.664,662.086L1970.664,580.2L1907.389,580.2L1907.389,623.004L1786.422,528.033L1483.073,753.277L1566.82,755.138L1563.097,1002.656L1559.349,1042.641C1559.349,1042.641 1549.891,1160.655 1366.221,1170.026C1366.221,1170.026 1287.505,1158.781 1261.267,1173.775C1235.028,1188.768 1173.052,1220.629 1116.891,1209.384" style="fill:none;stroke:rgb(48,49,46);stroke-width:19.95px;"/>
                </g>
                <g transform="matrix(1,0,0,1,-1822.111186,1533.055809)">
                    <path d="M1177.929,1243.119C1177.929,1243.119 1219.161,1250.616 1262.267,1173.775" style="fill:none;stroke:rgb(48,49,46);stroke-width:14.97px;"/>
                </g>
                <g transform="matrix(1,0,0,1,-1822.111186,1533.055809)">
                    <path d="M1199.519,1323.769C1199.519,1323.769 1290.611,1322.078 1294.919,1249.139C1294.919,1249.139 1299.076,1189.818 1379.441,1173.775" style="fill:none;stroke:rgb(48,49,46);stroke-width:14.97px;"/>
                </g>
                <g transform="matrix(1,0,0,1,-1822.111186,1533.055809)">
                    <path d="M1249.073,1243.319C1249.073,1243.319 1258.294,1250.154 1301.475,1224.934" style="fill:none;stroke:rgb(48,49,46);stroke-width:12.47px;"/>
                </g>
                <g transform="matrix(1,0,0,1,-1822.111186,1533.055809)">
                    <path d="M1206.716,1422.216C1211.365,1407.494 1232.892,1379.763 1329.063,1349.048C1356.187,1340.385 1329.639,1239.85 1373.443,1221.904C1373.443,1221.904 1419.024,1203.911 1456.207,1193.116C1493.391,1182.321 1499.388,1179.922 1499.388,1179.922C1499.388,1179.922 1525.777,1172.725 1538.971,1158.331C1538.971,1158.331 1555.764,1124.746 1562.961,1127.145C1570.158,1129.544 1595.07,1157.224 1579.753,1188.318C1579.753,1188.318 1549.787,1237.182 1501.787,1259.087C1485,1266.749 1447.676,1268.683 1453.808,1338.253C1453.808,1338.253 1464.604,1392.229 1443.013,1405.424C1443.013,1405.424 1395.034,1448.605 1401.031,1470.195" style="fill:none;stroke:rgb(48,49,46);stroke-width:12.47px;"/>
                </g>
                <g transform="matrix(1,0,0,1,-1822.111186,1533.055809)">
                    <path d="M1367.446,1394.628C1368.782,1393.439 1384.145,1379.764 1384.145,1379.764C1388.586,1375.056 1425.298,1348.127 1414.226,1304.668C1414.226,1304.668 1371.045,1218.898 1443.013,1197.308" style="fill:none;stroke:rgb(48,49,46);stroke-width:12.47px;"/>
                </g>
                <g transform="matrix(1,0,0,1,-1822.111186,1533.055809)">
                    <path d="M1362.648,1335.854C1362.648,1335.854 1394.184,1332.58 1409.002,1292.835" style="fill:none;stroke:rgb(48,49,46);stroke-width:12.47px;"/>
                </g>
                <g transform="matrix(1,0,0,1,-1822.111186,1533.055809)">
                    <path d="M1528.176,1546.962C1528.176,1546.962 1536.572,1518.174 1499.388,1429.413C1499.388,1429.413 1469.804,1365.04 1547.017,1333.905C1547.017,1333.905 1592.398,1304.516 1604.943,1287.875C1615.204,1274.262 1655.321,1223.103 1643.326,1190.717C1631.331,1158.331 1616.937,1091.161 1616.937,1091.161C1616.937,1091.161 1613.339,1067.171 1610.94,1041.982" style="fill:none;stroke:rgb(48,49,46);stroke-width:17.46px;"/>
                </g>
                <g transform="matrix(1,0,0,1,-1822.111186,1533.055809)">
                    <path d="M1291.879,1436.61C1291.879,1436.61 1284.819,1370.557 1331.599,1347.767" style="fill:none;stroke:rgb(48,49,46);stroke-width:12.47px;"/>
                </g>
                <g transform="matrix(1,0,0,1,-1822.111186,1533.055809)">
                    <path d="M1628.784,1131.986C1628.784,1131.986 1653.143,1174.614 1687.651,1176.644L1722.16,1178.674C1722.16,1178.674 1774.937,1170.554 1793.207,1167.509C1807.824,1165.073 1820.493,1166.536 1831.212,1173.456C1833.889,1175.185 1836.445,1177.255 1838.88,1179.689" style="fill:none;stroke:rgb(48,49,46);stroke-width:17.46px;"/>
                </g>
                <g transform="matrix(1,0,0,1,-1822.111186,1533.055809)">
                    <path d="M1809.446,1208.108C1809.446,1208.108 1830.76,1215.212 1852.074,1240.586C1873.388,1265.96 1872.373,1271.035 1872.373,1271.035C1872.373,1271.035 1885.568,1309.603 1913.986,1329.902C1942.405,1350.201 1943.42,1349.186 1943.42,1349.186" style="fill:none;stroke:rgb(48,49,46);stroke-width:12.47px;"/>
                </g>
                <g transform="matrix(1,0,0,1,-1822.111186,1533.055809)">
                    <path d="M1876.433,1201.003C1876.433,1201.003 1896.537,1202.211 1914.789,1226.199C1932.777,1249.841 1953.329,1265.116 1962.704,1269.005C1971.523,1272.663 1968.473,1272.663 1971.856,1272.663" style="fill:none;stroke:rgb(48,49,46);stroke-width:9.98px;"/>
                </g>
                <g transform="matrix(1,0,0,1,-1822.111186,1533.055809)">
                    <path d="M1643.012,1184.029C1643.012,1184.029 1674.192,1210.661 1717.713,1224.952C1761.234,1239.243 1771.627,1254.832 1771.627,1254.832C1771.627,1254.832 1789.166,1274.319 1791.114,1297.054C1793.063,1319.789 1791.764,1326.935 1795.012,1360.712C1795.012,1360.712 1795.661,1400.986 1875.559,1428.268" style="fill:none;stroke:rgb(48,49,46);stroke-width:17.46px;"/>
                </g>
                <g transform="matrix(1,0,0,1,-1822.111186,1533.055809)">
                    <path d="M1743.897,1175.312C1743.897,1175.312 1748.549,1190.853 1775.952,1201.003C1803.356,1211.152 1826.7,1206.078 1826.7,1206.078C1826.7,1206.078 1872.373,1198.973 1896.732,1199.988C1921.091,1201.003 1936.315,1211.152 1936.315,1211.152C1936.315,1211.152 1966.764,1225.362 1990.108,1229.422C2013.452,1233.481 2018.527,1231.452 2031.721,1229.422C2044.916,1227.392 2066.23,1215.212 2066.23,1215.212" style="fill:none;stroke:rgb(48,49,46);stroke-width:12.47px;"/>
                </g>
                <g transform="matrix(1,0,0,1,-1822.111186,1533.055809)">
                    <path d="M1796.311,1292.507C1796.311,1292.507 1833.336,1309.396 1845.029,1319.14C1856.721,1328.883 1865.165,1335.379 1871.012,1362.011" style="fill:none;stroke:rgb(48,49,46);stroke-width:9.98px;"/>
                </g>
                <g transform="matrix(1,0,0,1,-1822.111186,1533.055809)">
                    <path d="M1689.781,1215.858C1689.781,1215.858 1708.619,1235.345 1694.328,1263.277C1694.328,1263.277 1673.542,1289.909 1699.525,1312.644C1699.525,1312.644 1715.764,1324.336 1732.653,1326.935" style="fill:none;stroke:rgb(48,49,46);stroke-width:9.98px;"/>
                </g>
                <g transform="matrix(1,0,0,1,-1822.111186,1533.055809)">
                    <path d="M1442.295,1406.182C1442.295,1406.182 1466.222,1430.285 1465.477,1468.541C1465.477,1468.541 1464.38,1499.721 1455.286,1506.216" style="fill:none;stroke:rgb(48,49,46);stroke-width:9.98px;"/>
                </g>
                <g transform="matrix(1,0,0,1,-1822.111186,1533.055809)">
                    <path d="M1610.274,1056.063C1609.837,1055.19 1573.029,1117.733 1556.033,1131.16" style="fill:none;stroke:rgb(48,49,46);stroke-width:12.47px;"/>
                </g>
                <g transform="matrix(1,0,0,1,-1822.111186,1533.055809)">
                    <path d="M1538.344,1159.059C1538.344,1159.059 1529.077,1209.037 1534.274,1214.883" style="fill:none;stroke:rgb(48,49,46);stroke-width:12.47px;"/>
                </g>
                <g transform="matrix(1,0,0,1,-1822.111186,1533.055809)">
                    <path d="M1537.522,1241.516C1537.522,1241.516 1549.214,1284.388 1574.547,1307.123" style="fill:none;stroke:rgb(48,49,46);stroke-width:12.47px;"/>
                </g>
                <g transform="matrix(1,0,0,1,-1822.111186,1533.055809)">
                    <path d="M1532.325,1340.9C1532.325,1340.9 1500.496,1381.174 1542.718,1416.251C1584.941,1451.327 1575.847,1438.336 1584.941,1450.678C1594.035,1463.02 1598.582,1477.96 1597.932,1495.498" style="fill:none;stroke:rgb(48,49,46);stroke-width:12.47px;"/>
                </g>
                <g transform="matrix(1,0,0,1,-1822.111186,1533.055809)">
                    <path d="M1575.847,1311.67C1575.847,1311.67 1568.701,1349.345 1585.59,1366.234L1602.479,1383.122C1602.479,1383.122 1635.607,1403.259 1627.163,1429.242" style="fill:none;stroke:rgb(48,49,46);stroke-width:12.47px;"/>
                </g>
                <g transform="matrix(1,0,0,1,-1822.111186,1533.055809)">
                    <path d="M1591.436,1314.593C1591.436,1314.593 1636.257,1341.225 1687.573,1356.815C1687.573,1356.815 1725.897,1370.456 1737.59,1381.498C1737.59,1381.498 1757.077,1403.584 1747.983,1450.353C1747.983,1450.353 1753.179,1499.72 1799.299,1523.105" style="fill:none;stroke:rgb(48,49,46);stroke-width:12.47px;"/>
                </g>
                <g transform="matrix(1,0,0,1,-1822.111186,1533.055809)">
                    <path d="M1750.148,1433.956C1750.148,1433.956 1784.036,1438.332 1793.453,1444.507C1806.454,1453.033 1810.342,1463.994 1810.342,1464.644" style="fill:none;stroke:rgb(48,49,46);stroke-width:12.47px;"/>
                </g>
                <g transform="matrix(1,0,0,1,-1822.111186,1533.055809)">
                    <path d="M1590.893,1315.162C1590.893,1315.162 1648.81,1353.425 1663.18,1367.109C1666.418,1370.193 1680.304,1388.663 1681.782,1392.068C1683.4,1395.798 1697.786,1408.692 1672.578,1462.647C1672.578,1462.647 1663.539,1493.874 1673.932,1517.908" style="fill:none;stroke:rgb(48,49,46);stroke-width:12.47px;"/>
                </g>
            </g>
            <g transform="matrix(0.39994,0,0,0.39994,177.872085,3453.264009)">
                <g transform="matrix(426.266401,0,0,426.266401,3860.297408,1138.590134)">
                </g>
                <text x="2240.918px" y="1138.59px" style="font-family:'CrimsonText-SemiBold', 'Crimson Text';font-weight:600;font-size:426.266px;fill:rgb(48,49,46);">R<tspan x="2565.71px 2911.731px 3246.097px 3420.197px 3725.84px " y="1138.59px 1138.59px 1138.59px 1138.59px 1138.59px ">ADICI</tspan></text>
            </g>
        </g>
    </g>
</svg>
